<mxfile host="Electron" modified="2023-11-08T06:54:06.090Z" agent="Mozilla/5.0 (Macintosh; Intel Mac OS X 10_15_7) AppleWebKit/537.36 (KHTML, like Gecko) draw.io/22.0.3 Chrome/114.0.5735.289 Electron/25.8.4 Safari/537.36" etag="fLkLKYJw7BWIae97Iquu" version="22.0.3" type="device">
  <diagram name="第 1 页" id="ujzJZVxG4UB_5SokYcBW">
    <mxGraphModel dx="1026" dy="658" grid="1" gridSize="10" guides="1" tooltips="1" connect="1" arrows="1" fold="1" page="1" pageScale="1" pageWidth="827" pageHeight="1169" math="0" shadow="0">
      <root>
        <mxCell id="0" />
        <mxCell id="1" parent="0" />
        <mxCell id="CEb01pUDS_A-p7_sEPTb-1" style="rounded=0;orthogonalLoop=1;jettySize=auto;html=1;exitX=1;exitY=0;exitDx=0;exitDy=0;entryX=0;entryY=1;entryDx=0;entryDy=0;strokeWidth=3;" edge="1" parent="1" source="CEb01pUDS_A-p7_sEPTb-2" target="CEb01pUDS_A-p7_sEPTb-12">
          <mxGeometry relative="1" as="geometry">
            <Array as="points" />
          </mxGeometry>
        </mxCell>
        <mxCell id="CEb01pUDS_A-p7_sEPTb-22" style="edgeStyle=orthogonalEdgeStyle;rounded=0;orthogonalLoop=1;jettySize=auto;html=1;entryX=0.5;entryY=1;entryDx=0;entryDy=0;strokeWidth=3;" edge="1" parent="1" source="CEb01pUDS_A-p7_sEPTb-2" target="CEb01pUDS_A-p7_sEPTb-20">
          <mxGeometry relative="1" as="geometry" />
        </mxCell>
        <mxCell id="CEb01pUDS_A-p7_sEPTb-2" value="fib(4)" style="rounded=0;whiteSpace=wrap;html=1;fontSize=32;" vertex="1" parent="1">
          <mxGeometry y="110" width="120" height="60" as="geometry" />
        </mxCell>
        <mxCell id="CEb01pUDS_A-p7_sEPTb-5" style="rounded=0;orthogonalLoop=1;jettySize=auto;html=1;exitX=0.5;exitY=0;exitDx=0;exitDy=0;entryX=0.5;entryY=1;entryDx=0;entryDy=0;strokeWidth=3;" edge="1" parent="1" source="CEb01pUDS_A-p7_sEPTb-6" target="CEb01pUDS_A-p7_sEPTb-2">
          <mxGeometry relative="1" as="geometry" />
        </mxCell>
        <mxCell id="CEb01pUDS_A-p7_sEPTb-18" style="rounded=0;orthogonalLoop=1;jettySize=auto;html=1;exitX=1;exitY=0;exitDx=0;exitDy=0;entryX=0;entryY=1;entryDx=0;entryDy=0;strokeWidth=3;" edge="1" parent="1" source="CEb01pUDS_A-p7_sEPTb-6" target="CEb01pUDS_A-p7_sEPTb-13">
          <mxGeometry relative="1" as="geometry" />
        </mxCell>
        <mxCell id="CEb01pUDS_A-p7_sEPTb-6" value="fib(2)" style="rounded=0;whiteSpace=wrap;html=1;fontSize=32;" vertex="1" parent="1">
          <mxGeometry y="220" width="120" height="60" as="geometry" />
        </mxCell>
        <mxCell id="CEb01pUDS_A-p7_sEPTb-11" style="rounded=0;orthogonalLoop=1;jettySize=auto;html=1;exitX=0.5;exitY=0;exitDx=0;exitDy=0;entryX=0.5;entryY=1;entryDx=0;entryDy=0;strokeWidth=3;" edge="1" parent="1" source="CEb01pUDS_A-p7_sEPTb-13" target="CEb01pUDS_A-p7_sEPTb-12">
          <mxGeometry relative="1" as="geometry" />
        </mxCell>
        <mxCell id="CEb01pUDS_A-p7_sEPTb-21" style="edgeStyle=orthogonalEdgeStyle;rounded=0;orthogonalLoop=1;jettySize=auto;html=1;entryX=1;entryY=0.5;entryDx=0;entryDy=0;strokeWidth=3;" edge="1" parent="1" source="CEb01pUDS_A-p7_sEPTb-12" target="CEb01pUDS_A-p7_sEPTb-20">
          <mxGeometry relative="1" as="geometry" />
        </mxCell>
        <mxCell id="CEb01pUDS_A-p7_sEPTb-12" value="fib(5)" style="rounded=0;whiteSpace=wrap;html=1;fontSize=32;" vertex="1" parent="1">
          <mxGeometry x="160" width="120" height="60" as="geometry" />
        </mxCell>
        <mxCell id="CEb01pUDS_A-p7_sEPTb-19" style="edgeStyle=orthogonalEdgeStyle;rounded=0;orthogonalLoop=1;jettySize=auto;html=1;strokeWidth=3;" edge="1" parent="1" source="CEb01pUDS_A-p7_sEPTb-13" target="CEb01pUDS_A-p7_sEPTb-2">
          <mxGeometry relative="1" as="geometry" />
        </mxCell>
        <mxCell id="CEb01pUDS_A-p7_sEPTb-13" value="fib(3)" style="rounded=0;whiteSpace=wrap;html=1;fontSize=32;" vertex="1" parent="1">
          <mxGeometry x="160" y="110" width="120" height="60" as="geometry" />
        </mxCell>
        <mxCell id="CEb01pUDS_A-p7_sEPTb-16" style="rounded=0;orthogonalLoop=1;jettySize=auto;html=1;exitX=0.5;exitY=0;exitDx=0;exitDy=0;entryX=0.5;entryY=1;entryDx=0;entryDy=0;strokeWidth=3;" edge="1" parent="1" source="CEb01pUDS_A-p7_sEPTb-17" target="CEb01pUDS_A-p7_sEPTb-13">
          <mxGeometry relative="1" as="geometry" />
        </mxCell>
        <mxCell id="CEb01pUDS_A-p7_sEPTb-17" value="fib(1)" style="rounded=0;whiteSpace=wrap;html=1;fontSize=32;" vertex="1" parent="1">
          <mxGeometry x="160" y="220" width="120" height="60" as="geometry" />
        </mxCell>
        <mxCell id="CEb01pUDS_A-p7_sEPTb-20" value="fib(6)" style="rounded=0;whiteSpace=wrap;html=1;fontSize=32;" vertex="1" parent="1">
          <mxGeometry width="120" height="60" as="geometry" />
        </mxCell>
      </root>
    </mxGraphModel>
  </diagram>
</mxfile>
